<?xml version="1.0" encoding="UTF-8"?>
<svg version="1.1" xmlns="http://www.w3.org/2000/svg" width="1063" height="1063">
<path d="M0 0 C1.01127457 -0.00350464 2.02254913 -0.00700928 3.06446838 -0.01062012 C6.37036225 -0.01934325 9.67603798 -0.01362266 12.98193359 -0.00683594 C15.29877768 -0.00818508 17.61562148 -0.01012769 19.9324646 -0.01263428 C24.77222405 -0.0155726 29.61190936 -0.01132875 34.45166016 -0.00195312 C40.63957416 0.00945336 46.82731486 0.00286606 53.01522255 -0.00909805 C57.79372452 -0.01634064 62.5721857 -0.01401791 67.35068893 -0.00884247 C69.63194169 -0.00751327 71.91319821 -0.00912796 74.19444656 -0.01380157 C77.38624069 -0.01890771 80.57775765 -0.01109977 83.76953125 0 C84.70171982 -0.00404846 85.63390839 -0.00809692 86.59434509 -0.01226807 C94.59411656 0.03900225 101.73144607 1.56271593 109.25537109 4.25878906 C110.22474609 4.59136719 111.19412109 4.92394531 112.19287109 5.26660156 C141.42945566 15.93198828 163.47412829 37.2067273 176.59912109 65.28222656 C179.26870302 71.39146213 180.85296769 77.75385576 182.25537109 84.25878906 C182.4297168 84.98525635 182.6040625 85.71172363 182.78369141 86.46020508 C183.38963175 90.05538837 183.45687179 93.60742996 183.49365234 97.24316406 C183.50172409 98.01702454 183.50979584 98.79088501 183.51811218 99.5881958 C183.53191441 101.22885938 183.54265376 102.86955121 183.55053711 104.51025391 C183.56194466 106.15454795 183.58221347 107.79880838 183.61206055 109.44287109 C184.12612663 137.83425276 173.91643259 162.19870714 154.69677734 183.03222656 C150.19984577 187.6886238 145.71819673 191.77518691 140.38037109 195.44628906 C133.54688313 200.24240329 129.94694028 205.59234834 128.47412109 213.84863281 C127.18476715 228.05455033 133.49209124 239.34828036 140.95068359 250.87988281 C142.25537109 253.25878906 142.25537109 253.25878906 142.06787109 255.94628906 C141.25537109 258.25878906 141.25537109 258.25878906 139.25537109 260.25878906 C121.65892819 262.12549439 105.36618753 254.69508505 91.62646484 244.26269531 C83.48600246 237.38286467 77.829615 226.69165878 76.25537109 216.25878906 C75.30419907 216.26989212 74.35302704 216.28099518 73.37303162 216.29243469 C64.30044381 216.39488406 55.22797699 216.46925954 46.15493679 216.51784992 C41.49309666 216.54367266 36.83173238 216.57855366 32.17016602 216.63598633 C-5.80414542 217.09130209 -37.21606058 213.05849381 -66.74462891 187.25878906 C-67.47939453 186.61941406 -68.21416016 185.98003906 -68.97119141 185.32128906 C-86.5369395 168.93486681 -98.73326628 144.45787701 -99.9375 120.40673828 C-99.97036286 118.95910828 -99.99689108 117.51132469 -100.01806641 116.06347656 C-100.03713043 114.89177162 -100.03713043 114.89177162 -100.05657959 113.69639587 C-100.51122578 79.0317724 -93.26112624 53.48267644 -68.80712891 27.94628906 C-66.18771032 25.29749382 -64.46522629 23.83310946 -60.74462891 23.25878906 C-60.74462891 22.59878906 -60.74462891 21.93878906 -60.74462891 21.25878906 C-58.69058677 19.73952713 -56.6554842 18.36146038 -54.49462891 17.00878906 C-53.85855713 16.60764893 -53.22248535 16.20650879 -52.56713867 15.79321289 C-36.26360743 5.65759702 -19.28317777 -0.08411145 0 0 Z " fill="#3E7CDE" transform="translate(179.74462890625,398.7412109375)"/>
<path d="M0 0 C0.76918762 -0.00978378 1.53837524 -0.01956757 2.33087158 -0.02964783 C4.88902033 -0.05967969 7.44711628 -0.0810137 10.00537109 -0.09985352 C10.87832195 -0.10642534 11.75127281 -0.11299717 12.65067673 -0.11976814 C17.27523935 -0.15240277 21.8997786 -0.17683827 26.52441406 -0.19628906 C30.35027759 -0.2140766 34.17540047 -0.24884893 38.00097656 -0.29882812 C42.61876979 -0.35909246 47.2358781 -0.3897743 51.85404587 -0.39946175 C53.61230808 -0.4080111 55.37055226 -0.42681659 57.12858963 -0.45620537 C72.57712689 -0.70045597 72.57712689 -0.70045597 77.234375 2.27856445 C81.69681978 7.4208492 80.60909917 15.30002317 80.51318359 21.71264648 C80.51281954 23.2390912 80.51483037 24.76553815 80.519104 26.29197693 C80.52039595 29.48410104 80.49750485 32.67484425 80.45654297 35.86669922 C80.40542287 39.95162292 80.40767735 44.03437909 80.42715073 48.11950779 C80.43746196 51.26900471 80.4230088 54.41800596 80.40076447 57.56742668 C80.39241965 59.07324964 80.3908997 60.57912686 80.39641571 62.08496284 C80.39970971 64.19184341 80.37050163 66.29585489 80.33251953 68.40234375 C80.31750397 70.1972097 80.31750397 70.1972097 80.30218506 72.02833557 C79.47116615 76.1046347 77.81329751 77.59424505 74.65380859 80.20874023 C71.62255722 81.72436592 68.47282429 81.37356631 65.14648438 81.38574219 C64.37233185 81.39231339 63.59817932 81.39888458 62.80056763 81.40565491 C60.23341785 81.42539928 57.66632656 81.43705214 55.09912109 81.44702148 C54.22334286 81.45109701 53.34756462 81.45517254 52.44524765 81.45937157 C47.81115707 81.48023578 43.17709615 81.49453675 38.54296875 81.50390625 C33.75204476 81.51497989 28.96158407 81.54938956 24.17082405 81.58907795 C20.49054081 81.61519635 16.81036884 81.62359375 13.13000107 81.62718773 C11.36372621 81.63206499 9.59745668 81.64371131 7.83127213 81.66222572 C5.36044601 81.68651947 2.89083032 81.68567066 0.41992188 81.67871094 C-0.67588196 81.69792603 -0.67588196 81.69792603 -1.79382324 81.7175293 C-5.1377703 81.68316736 -7.00302834 81.46743359 -9.70657349 79.42936707 C-12.95906705 75.02433197 -13.60209636 72.21823462 -13.65258789 66.68359375 C-13.66091141 66.03755188 -13.66923492 65.39151001 -13.67781067 64.72589111 C-13.70184935 62.59641445 -13.71067425 60.46724431 -13.71728516 58.33764648 C-13.72625497 56.8531841 -13.73537688 55.36872264 -13.74464417 53.88426208 C-13.76111915 50.77486984 -13.76883175 47.6655851 -13.77172852 44.55615234 C-13.77711623 40.57676644 -13.81481691 36.59839377 -13.86047268 32.61929417 C-13.89024898 29.55401437 -13.89745215 26.48897867 -13.89845467 23.42356682 C-13.90265458 21.95674935 -13.91507997 20.48993099 -13.93597221 19.0232563 C-13.96290733 16.96917722 -13.95805907 14.91744822 -13.94555664 12.86328125 C-13.95062729 11.69620132 -13.95569794 10.5291214 -13.96092224 9.32667542 C-13.16649536 5.29731591 -11.42374284 3.8250337 -8.34619141 1.20874023 C-6.39569432 -0.74175685 -2.66448697 0.02118244 0 0 Z " fill="#D1D5DE" transform="translate(161.34619140625,465.791259765625)"/>
<path d="M0 0 C7.59 0 15.18 0 23 0 C24.00160156 2.47371094 25.00320313 4.94742187 26.03515625 7.49609375 C27.03137716 9.95553244 28.02776611 12.41490299 29.02416992 14.87426758 C29.70403204 16.55258227 30.38372601 18.23096509 31.06323242 19.90942383 C35.67030088 31.28898523 40.31237735 42.65337586 45 54 C46.98091211 49.29239898 48.95975176 44.58393081 50.9375 39.875 C51.23112427 39.17614685 51.52474854 38.4772937 51.82727051 37.75726318 C56.07453202 27.64452828 60.27643182 17.51520103 64.37084961 7.33935547 C64.70737549 6.50807129 65.04390137 5.67678711 65.390625 4.8203125 C65.67969727 4.10117676 65.96876953 3.38204102 66.26660156 2.64111328 C67 1 67 1 68 0 C75.26 0 82.52 0 90 0 C90 27.39 90 54.78 90 83 C84.06 83 78.12 83 72 83 C71.67 67.16 71.34 51.32 71 35 C64.73 50.84 58.46 66.68 52 83 C47.71 83 43.42 83 39 83 C35.99354667 77.19766205 33.45589859 71.34607518 31.109375 65.25 C30.79887207 64.45207031 30.48836914 63.65414062 30.16845703 62.83203125 C29.02475926 59.8896546 27.88775837 56.94467839 26.75 54 C24.1925 47.4 21.635 40.8 19 34 C18.67 50.17 18.34 66.34 18 83 C12.06 83 6.12 83 0 83 C0 55.61 0 28.22 0 0 Z " fill="#FFFFFF" transform="translate(891,426)"/>
<path d="M0 0 C8.47493742 6.06847371 13.53558594 14.22754809 16.25 24.25 C18.63413869 38.79324599 17.24265229 52.55353799 9.25 65.25 C7.0546875 67.59375 7.0546875 67.59375 5.25 69.25 C7.25007797 73.77649224 10.42513471 77.23583771 13.5703125 81.0078125 C15.25 83.25 15.25 83.25 15.25 85.25 C-0.35343839 86.34467329 -0.35343839 86.34467329 -3.828125 83.62109375 C-4.67770798 82.31345248 -5.51422971 80.99721014 -6.3359375 79.671875 C-6.80257812 79.20265625 -7.26921875 78.7334375 -7.75 78.25 C-10.53655893 78.26902088 -12.92433899 78.91959283 -15.62109375 79.609375 C-24.62887082 81.45366394 -34.83655938 79.97987255 -42.75 75.25 C-53.4776926 67.2475509 -59.16835218 58.40653187 -61.22265625 45.21484375 C-62.69634354 31.2741008 -60.42966256 19.03329905 -52.75 7.25 C-47.51237304 1.00364489 -41.48195386 -2.38634571 -33.75 -4.75 C-32.83541016 -5.03810547 -32.83541016 -5.03810547 -31.90234375 -5.33203125 C-20.82660644 -7.48285501 -9.56353501 -5.94146527 0 0 Z M-35.5 15.4375 C-42.29986826 23.93733532 -43.46910671 32.56993366 -42.75 43.25 C-41.58056588 50.24678379 -39.10403199 55.52585413 -33.75 60.25 C-28.83040341 63.63905543 -24.5075987 63.59545592 -18.75 63.25 C-19.68601246 61.83235006 -20.6238792 60.41592432 -21.5625 59 C-22.08457031 58.21109375 -22.60664063 57.4221875 -23.14453125 56.609375 C-24.62134122 54.43907519 -26.15689873 52.33586232 -27.75 50.25 C-14.2029148 49.32982063 -14.2029148 49.32982063 -10.640625 51.5859375 C-9.3125 53.25 -9.3125 53.25 -7.75 56.25 C-2.98583505 52.05967004 -2.01790465 46.17194673 -1.45703125 40.0546875 C-1.25168719 31.78225524 -1.90302909 23.60302946 -7.0625 16.8125 C-11.68613555 12.40391727 -16.1652155 10.69498259 -22.4453125 10.1875 C-27.66754445 10.32911985 -31.46623381 12.22882235 -35.5 15.4375 Z " fill="#FFFFFF" transform="translate(452.75,430.75)"/>
<path d="M0 0 C17 0 17 0 21.9921875 4.90625 C23.34727374 7.06720255 24.63989092 9.26830104 25.875 11.5 C26.57364405 12.65480923 27.27855237 13.8058506 27.98950195 14.953125 C29.39244501 17.23054771 30.75784613 19.51943741 32.11083984 21.828125 C34.61216236 26.02781254 37.3629116 30.01398217 40.1875 34 C43.85789909 39.29092582 47.42720669 44.64081003 51 50 C51.33 33.5 51.66 17 52 0 C57.94 0 63.88 0 70 0 C70 27.39 70 54.78 70 83 C64.39 83 58.78 83 53 83 C49.91148785 79.53136327 48.24252856 77.18595814 46.22949219 73.20996094 C43.56377486 68.4184452 40.23072941 64.02984515 37.0625 59.5625 C35.7391871 57.66915462 34.417562 55.77462843 33.09765625 53.87890625 C31.74542969 51.93886719 30.39320313 49.99882812 29 48 C26.03 43.71 23.06 39.42 20 35 C19.67 50.84 19.34 66.68 19 83 C12.73 83 6.46 83 0 83 C0 55.61 0 28.22 0 0 Z " fill="#FFFFFF" transform="translate(649,426)"/>
<path d="M0 0 C16 0 16 0 20 3.75 C21.04133761 5.47572187 22.03945065 7.22803923 23 9 C24.23667626 10.86307967 25.48754514 12.71679099 26.75 14.5625 C27.41644531 15.57570313 28.08289063 16.58890625 28.76953125 17.6328125 C31.27549113 21.43550718 33.85389038 25.18728849 36.4375 28.9375 C36.85547852 29.544729 37.27345703 30.15195801 37.70410156 30.77758789 C42.12506457 37.19266252 46.56534584 43.59438844 51 50 C51.33 33.5 51.66 17 52 0 C57.94 0 63.88 0 70 0 C70 27.39 70 54.78 70 83 C53 83 53 83 49.49609375 80.30859375 C48.40722656 78.47900391 48.40722656 78.47900391 47.4375 76.4375 C46.59183278 74.97259921 45.74125096 73.51052851 44.88671875 72.05078125 C44.43989746 71.24721191 43.99307617 70.44364258 43.53271484 69.61572266 C40.58230431 64.58056839 37.12050862 59.88429551 33.75 55.125 C32.4307227 53.23286382 31.11296971 51.33966375 29.796875 49.4453125 C26.20703512 44.29043379 22.60235702 39.14622432 19 34 C18.67 50.17 18.34 66.34 18 83 C12.06 83 6.12 83 0 83 C0 55.61 0 28.22 0 0 Z " fill="#FFFFFF" transform="translate(567,547)"/>
<path d="M0 0 C48.12124317 0 48.12124317 0 57.08203125 8.70703125 C62.41694247 15.08502084 63.63468344 21.9423033 63.3203125 30.10546875 C62.50616668 37.46256695 60.2321774 42.7678226 55 48 C52.1875 49.875 52.1875 49.875 50 51 C51.46688977 54.89791554 53.26516108 58.48529408 55.2578125 62.140625 C55.88300781 63.29304687 56.50820313 64.44546875 57.15234375 65.6328125 C57.80964285 66.8386796 58.467198 68.04440716 59.125 69.25 C60.42172005 71.62889761 61.71549057 74.00932786 63.0078125 76.390625 C63.58160645 77.44282227 64.15540039 78.49501953 64.74658203 79.57910156 C66 82 66 82 66 83 C59.07 83 52.14 83 45 83 C44.05640625 80.99035156 43.1128125 78.98070312 42.140625 76.91015625 C41.18820653 74.9650812 40.22025769 73.02851244 39.25048828 71.09204102 C38.58835597 69.74887218 37.94250448 68.39754295 37.31396484 67.03833008 C36.40279047 65.07563458 35.43547603 63.15052094 34.453125 61.22265625 C33.88754883 60.05484619 33.32197266 58.88703613 32.73925781 57.68383789 C29.20340058 53.64853872 29.20340058 53.64853872 18 54 C18 63.57 18 73.14 18 83 C12.06 83 6.12 83 0 83 C0 55.61 0 28.22 0 0 Z M18 15 C18 22.92 18 30.84 18 39 C20.84625 39.0825 23.6925 39.165 26.625 39.25 C27.95265381 39.30462402 27.95265381 39.30462402 29.30712891 39.36035156 C34.70205754 39.43563528 37.72290684 38.58874848 42 35 C44.58644464 31.5905957 44.36503115 28.1613551 44 24 C42.32960956 20.32514103 40.45118836 18.09162931 37 16 C33.17099018 14.66302983 29.25026403 14.88872682 25.25 14.9375 C22.8575 14.958125 20.465 14.97875 18 15 Z " fill="#FFFFFF" transform="translate(786,547)"/>
<path d="M0 0 C9.17314262 6.61695826 14.58069593 15.10287183 16.9296875 26.23828125 C18.69650442 40.42690282 17.47296518 54.00387831 9.19921875 65.9375 C2.70732232 74.10949385 -5.42246527 78.48083492 -15.69921875 80.05859375 C-27.53248143 81.06403437 -38.60046051 79.01416251 -47.9375 71.4375 C-56.60081616 63.11961112 -60.7195067 52.27792882 -60.98046875 40.42163086 C-61.08917276 25.9001338 -58.88339143 14.34144828 -48.6875 3.3125 C-35.35056698 -8.43841936 -14.92039483 -9.20299984 0 0 Z M-38.2421875 19.08203125 C-43.11294514 26.59879507 -43.47753816 36.98792744 -42.0625 45.625 C-40.50702794 52.00243547 -37.74303121 56.70918565 -32.5625 60.75 C-27.2511803 63.6365868 -22.61833964 63.82218153 -16.6875 63.3125 C-10.81293893 61.20652528 -7.02083786 57.64584126 -3.9375 52.25 C-0.25074413 43.5861237 -0.06821465 31.53127951 -3.25 22.625 C-6.14248922 16.64650996 -10.15854313 13.2717595 -16.3125 10.9375 C-25.89634154 9.16271453 -31.94674983 11.74711433 -38.2421875 19.08203125 Z " fill="#FFFFFF" transform="translate(537.6875,551.6875)"/>
<path d="M0 0 C6.27 0 12.54 0 19 0 C19.01458252 1.76110107 19.02916504 3.52220215 19.04418945 5.33666992 C19.09589678 11.16423464 19.16119793 16.99156238 19.23571491 22.81887341 C19.28038664 26.35098666 19.31964938 29.88298544 19.34643555 33.4152832 C19.3774908 37.47897322 19.43227834 41.54204542 19.48828125 45.60546875 C19.49467117 46.8702153 19.5010611 48.13496185 19.50764465 49.43803406 C19.53733589 51.20930412 19.53733589 51.20930412 19.56762695 53.01635742 C19.57873001 54.05338303 19.58983307 55.09040863 19.60127258 56.15885925 C20.06487175 59.46224504 21.01820791 61.33364598 23 64 C28.50901277 67.26043613 33.6710143 67.76366274 40 67 C44.77766312 65.31897039 47.17952152 63.16377059 50 59 C50.60897703 56.12495635 50.60897703 56.12495635 50.54589844 53.01635742 C50.56561707 51.83551071 50.58533569 50.654664 50.60565186 49.43803406 C50.60749481 47.54091423 50.60749481 47.54091423 50.609375 45.60546875 C50.62591125 44.30297684 50.64244751 43.00048492 50.65948486 41.65852356 C50.7030735 38.20784617 50.72313812 34.75742258 50.73822021 31.30651855 C50.75782237 27.78036545 50.79978869 24.25448521 50.83984375 20.72851562 C50.91505348 13.81908642 50.96333181 6.90974017 51 0 C57.27 0 63.54 0 70 0 C70.04968284 7.77383508 70.08585328 15.54757635 70.10986328 23.3215332 C70.11987979 25.96250012 70.13349682 28.60345606 70.15087891 31.24438477 C70.17531897 35.05487793 70.18652697 38.86522361 70.1953125 42.67578125 C70.20563507 43.84393875 70.21595764 45.01209625 70.22659302 46.21565247 C70.22806387 57.12403922 69.87523358 67.7051843 62 76 C52.87513709 82.90289954 42.45008421 85.99405876 31 85 C18.99272671 83.32522666 10.60958609 80.08441246 3.19140625 70.3203125 C-0.74389652 62.65614907 -0.26348184 54.48822271 -0.1953125 46.09375 C-0.19157544 44.75997125 -0.18873175 43.42618972 -0.18673706 42.09240723 C-0.17915506 38.60717999 -0.15955436 35.1221234 -0.1373291 31.63696289 C-0.11675256 28.07049873 -0.10771027 24.5040066 -0.09765625 20.9375 C-0.07630243 13.9582568 -0.04116561 6.9791542 0 0 Z " fill="#FFFFFF" transform="translate(808,426)"/>
<path d="M0 0 C7.92 0 15.84 0 24 0 C27.35465223 9.53219056 30.70539574 19.06573356 34.05073547 28.60119629 C36.0778721 34.37779848 38.11055061 40.15242226 40.14625549 45.92601013 C41.53369726 49.86406275 42.91715997 53.80350582 44.29977417 57.74325562 C44.97481493 59.66410613 45.65151168 61.58437549 46.3298645 63.50405884 C47.28283113 66.20172839 48.2299653 68.90137908 49.17578125 71.6015625 C49.6060965 72.81317802 49.6060965 72.81317802 50.04510498 74.04927063 C51.12560538 77.14930776 52 79.69184829 52 83 C45.4 83 38.8 83 32 83 C31.175 80.586875 30.35 78.17375 29.5 75.6875 C29.23896484 74.93170654 28.97792969 74.17591309 28.70898438 73.3972168 C27.72282302 70.47512677 27 68.10385594 27 65 C17.1 65 7.2 65 -3 65 C-3.99 69.95 -3.99 69.95 -5 75 C-5.99 77.64 -6.98 80.28 -8 83 C-14.6 83 -21.2 83 -28 83 C-25.91357146 75.02958727 -23.47496742 67.26950056 -20.76171875 59.4921875 C-20.35846878 58.3272879 -19.95521881 57.16238831 -19.53974915 55.96218872 C-18.25903279 52.26528158 -16.97330258 48.57014077 -15.6875 44.875 C-14.8362687 42.41938168 -13.98535464 39.96365337 -13.13476562 37.5078125 C-8.79612489 24.99108185 -4.4244597 12.48664809 0 0 Z M12 21 C9.4016384 27.03865043 7.22526986 33.17220199 5.25 39.4375 C5.02739502 40.13552734 4.80479004 40.83355469 4.57543945 41.55273438 C3.66741702 44.47949481 3 46.91673902 3 50 C9.27 50 15.54 50 22 50 C17.545 35.645 17.545 35.645 13 21 C12.67 21 12.34 21 12 21 Z " fill="#FFFFFF" transform="translate(588,426)"/>
<path d="M0 0 C5.94 0 11.88 0 18 0 C18.0093457 1.72557129 18.01869141 3.45114258 18.02832031 5.22900391 C18.06391171 10.94485156 18.11775007 16.66033463 18.18390274 22.37590981 C18.22332995 25.83965511 18.25554121 29.30314804 18.27099609 32.76708984 C18.28910553 36.75390937 18.33907812 40.74002956 18.390625 44.7265625 C18.39185364 45.96427399 18.39308228 47.20198547 18.39434814 48.47720337 C18.52186151 57.04269978 18.52186151 57.04269978 23 64 C27.98819533 67.56299666 33.08004421 67.81182753 39 67 C43.22062227 65.74021898 46.03461411 64.39581081 48.57373047 60.72460938 C50.69791512 55.17744041 50.48074698 49.83844308 50.51171875 43.9453125 C50.52966995 42.68862762 50.54762115 41.43194275 50.56611633 40.13717651 C50.61100911 36.81304376 50.6433604 33.48927661 50.66955566 30.16497803 C50.69945334 26.76610078 50.74595173 23.36745402 50.79101562 19.96875 C50.8759166 13.31258591 50.9427422 6.65645697 51 0 C56.94 0 62.88 0 69 0 C69.06803284 7.79795886 69.12296336 15.59575273 69.15543652 23.39392757 C69.17102948 27.01574248 69.19214953 30.63734214 69.22631836 34.2590332 C69.25914149 37.7603775 69.2769008 41.261516 69.28463173 44.7630024 C69.29279505 46.73537617 69.31617711 48.70766826 69.33988953 50.67991638 C69.34176631 60.78954021 68.19841832 68.71335221 61.07421875 76.2109375 C52.48476675 83.61954205 41.06292846 85.70240816 30 85 C18.97748229 83.70644834 10.91013195 79.7597618 3.59375 71.37890625 C0.43510217 66.66415985 -0.24950719 62.12729056 -0.22705078 56.53564453 C-0.22682419 54.64436325 -0.22682419 54.64436325 -0.22659302 52.71487427 C-0.21638217 51.35418537 -0.20595022 49.99349812 -0.1953125 48.6328125 C-0.19157824 47.22891441 -0.18873322 45.8250137 -0.18673706 44.42111206 C-0.17913304 40.74186903 -0.1595127 37.06278611 -0.1373291 33.38360596 C-0.11680071 29.62294683 -0.10772044 25.86226161 -0.09765625 22.1015625 C-0.0762634 14.73429386 -0.04110802 7.36718984 0 0 Z " fill="#FFFFFF" transform="translate(482,426)"/>
<path d="M0 0 C18.81 0 37.62 0 57 0 C57 4.95 57 9.9 57 15 C44.46 15 31.92 15 19 15 C19 21.27 19 27.54 19 34 C30.55 34 42.1 34 54 34 C54 38.95 54 43.9 54 49 C42.45 49 30.9 49 19 49 C19 55.27 19 61.54 19 68 C31.54 68 44.08 68 57 68 C57 72.95 57 77.9 57 83 C38.19 83 19.38 83 0 83 C0 55.61 0 28.22 0 0 Z " fill="#FFFFFF" transform="translate(716,547)"/>
<path d="M0 0 C8.37552759 5.68395918 12.5976174 13.9989288 14.69140625 23.71484375 C14.69140625 24.37484375 14.69140625 25.03484375 14.69140625 25.71484375 C8.42140625 25.71484375 2.15140625 25.71484375 -4.30859375 25.71484375 C-5.36046875 23.33265625 -5.36046875 23.33265625 -6.43359375 20.90234375 C-8.11331655 17.58043386 -9.04470669 15.91275904 -12.05859375 13.65234375 C-18.51046414 11.79122729 -24.13542949 10.77773592 -30.45703125 13.5859375 C-36.34169078 17.17384173 -39.17091546 22.42999261 -40.83984375 28.9765625 C-42.38628566 38.01036069 -41.99935103 47.52431824 -37.20703125 55.5625 C-34.44524336 59.18846022 -31.59786825 61.28508558 -27.30859375 62.71484375 C-21.07448636 63.38477768 -15.59171916 63.45168856 -10.30859375 59.71484375 C-7.16865564 56.40046464 -6.05331727 54.07665254 -4.30859375 49.71484375 C1.96140625 49.71484375 8.23140625 49.71484375 14.69140625 49.71484375 C12.06853296 61.51777357 8.66827823 68.64789277 -1.30859375 75.71484375 C-10.62986633 81.16274968 -22.53148038 82.0470312 -32.9296875 79.51171875 C-44.55688891 75.61689266 -51.51280913 69.44565289 -57.30859375 58.71484375 C-62.7754613 46.1172794 -62.66545101 30.75838839 -57.9296875 18 C-53.64393008 8.23849946 -47.9191227 1.40707491 -37.99609375 -2.72265625 C-36.44598873 -3.27929622 -34.88366018 -3.80365926 -33.30859375 -4.28515625 C-32.69628906 -4.4759375 -32.08398438 -4.66671875 -31.453125 -4.86328125 C-20.61932203 -6.99452118 -9.61215801 -5.3509306 0 0 Z " fill="#FFFFFF" transform="translate(452.30859375,551.28515625)"/>
<path d="M0 0 C2.17666626 1.5486908 2.17666626 1.5486908 4 4 C4.38464319 6.69144597 4.52781485 8.97086239 4.48583984 11.65844727 C4.48963654 12.42474457 4.49343323 13.19104187 4.49734497 13.9805603 C4.50474522 16.50959404 4.48337837 19.03747491 4.4609375 21.56640625 C4.45855287 23.32470057 4.45764779 25.08299747 4.4581604 26.84129333 C4.45503342 30.52415951 4.43847485 34.20663611 4.41162109 37.8894043 C4.37761637 42.61300659 4.36999328 47.33618134 4.37151146 52.0598917 C4.37096798 55.68955068 4.36000485 59.31911598 4.34550858 62.94874382 C4.33913943 64.69068632 4.33520141 66.43263945 4.33372116 68.17459297 C4.32939076 70.60689561 4.31189648 73.03874239 4.29052734 75.47094727 C4.2918869 76.55340477 4.2918869 76.55340477 4.29327393 77.6577301 C4.24610175 81.32457288 4.09176017 82.86235974 2 86 C-4.57976767 87.05988526 -8.97734261 84.32398552 -14.5 81.1875 C-22.88165556 76.54647271 -30.83553757 73.05482081 -40 70 C-40 52.18 -40 34.36 -40 16 C-35.854375 13.916875 -31.70875 11.83375 -27.4375 9.6875 C-26.14384521 9.03612061 -24.85019043 8.38474121 -23.51733398 7.71362305 C-6.43213282 -0.84952698 -6.43213282 -0.84952698 0 0 Z " fill="#D6DBE4" transform="translate(288,463)"/>
<path d="M0 0 C18.48 0 36.96 0 56 0 C56 4.95 56 9.9 56 15 C43.79 15 31.58 15 19 15 C19 21.27 19 27.54 19 34 C29.89 34 40.78 34 52 34 C52 38.95 52 43.9 52 49 C41.11 49 30.22 49 19 49 C19 60.22 19 71.44 19 83 C12.73 83 6.46 83 0 83 C0 55.61 0 28.22 0 0 Z " fill="#FFFFFF" transform="translate(650,547)"/>
<path d="M0 0 C0.66 0.33 1.32 0.66 2 1 C0.50333605 4.85220892 -1.62149448 6.39837055 -5 8.6875 C-17.35123137 17.42216166 -28.46979777 26.82888299 -32 42 C-32.33 42.66 -32.66 43.32 -33 44 C-33.66 44 -34.32 44 -35 44 C-35 45.32 -35 46.64 -35 48 C-35.66 48 -36.32 48 -37 48 C-37.0825 48.886875 -37.165 49.77375 -37.25 50.6875 C-37.89203828 55.32134149 -39.44116469 59.62633586 -40.96484375 64.03515625 C-44.10448426 74.83551961 -44.38609632 86.21140621 -44.375 97.375 C-44.3764502 98.04822296 -44.37790039 98.72144592 -44.37939453 99.41506958 C-44.37693665 109.76380596 -43.55122934 119.21826562 -40 129 C-39.34 129 -38.68 129 -38 129 C-36.72660518 131.51956743 -35.45623358 134.04058649 -34.1875 136.5625 C-33.65286133 137.61920898 -33.65286133 137.61920898 -33.10742188 138.69726562 C-31.45114451 141.99462516 -29.85800063 145.27918378 -28.4609375 148.6953125 C-21.70225024 163.98367994 -6.13319135 178.24474092 9 185 C12.76214773 186.42459298 16.5613125 187.72075552 20.375 189 C21.35855469 189.34289062 22.34210938 189.68578125 23.35546875 190.0390625 C38.24918917 195.04824703 52.38741669 196.44048311 67.95703125 196.44140625 C69.72060726 196.45321199 71.4841734 196.46658385 73.24772644 196.48143005 C77.83471968 196.51721021 82.42162519 196.53770793 87.00872803 196.55297852 C94.39388501 196.57805818 101.77884889 196.61741986 109.16382408 196.67487907 C111.73367794 196.69117884 114.30334614 196.6949799 116.87324524 196.69789124 C118.43869352 196.70766066 120.00413883 196.71792279 121.56958008 196.72875977 C122.63778488 196.72493034 122.63778488 196.72493034 123.72756958 196.72102356 C127.3783977 196.75913177 128.87293385 196.91528923 132 199 C133.24609375 201.828125 133.24609375 201.828125 134.4375 205.25 C136.20118374 210.07356879 138.0072051 213.87200703 141 218 C141.268125 218.825 141.53625 219.65 141.8125 220.5 C145.51616106 228.29718118 154.60955856 231.57782515 162 235 C162 235.66 162 236.32 162 237 C163.134375 237.144375 164.26875 237.28875 165.4375 237.4375 C169 238 169 238 170 239 C176.67203653 240.13298734 183.24618538 240.10130722 190 240 C189.56429687 239.35675781 189.12859375 238.71351563 188.6796875 238.05078125 C177 220.32900433 177 220.32900433 177 213 C176.01 213 175.02 213 174 213 C173.97096423 209.89585298 173.9531893 206.79174091 173.9375 203.6875 C173.92912109 202.80642578 173.92074219 201.92535156 173.91210938 201.01757812 C173.90888672 200.17001953 173.90566406 199.32246094 173.90234375 198.44921875 C173.89710693 197.66893311 173.89187012 196.88864746 173.88647461 196.0847168 C174 194 174 194 175 191 C175.66 191 176.32 191 177 191 C177.09023438 190.26007813 177.18046875 189.52015625 177.2734375 188.7578125 C178.54287343 183.93941592 182.22629486 181.07461947 186 178 C187.11375 177.525625 188.2275 177.05125 189.375 176.5625 C194.88112119 174.1891719 198.7163487 170.12283162 203 166 C203.9075 165.13375 204.815 164.2675 205.75 163.375 C211.79278818 157.50698885 211.79278818 157.50698885 215 150 C215.99 150 216.98 150 218 150 C218.28875 149.0925 218.5775 148.185 218.875 147.25 C219.76531776 144.67797092 220.71494413 142.38653234 222 140 C222.66 140 223.32 140 224 140 C224 139.34 224 138.68 224 138 C224.66 138.33 225.32 138.66 226 139 C217.09363433 155.40518581 206.6191653 170.52992916 191.0625 181.25 C184.25045532 186.01057877 180.68409808 191.37544059 179.21875 199.58984375 C177.92939606 213.79576127 184.23672015 225.08949129 191.6953125 236.62109375 C193 239 193 239 192.8125 241.6875 C192 244 192 244 190 246 C172.4035571 247.86670533 156.11081644 240.43629599 142.37109375 230.00390625 C134.23063137 223.1240756 128.5742439 212.43286971 127 202 C126.04882797 202.01110306 125.09765594 202.02220612 124.11766052 202.03364563 C115.04507272 202.136095 105.97260589 202.21047048 96.8995657 202.25906086 C92.23772556 202.2848836 87.57636129 202.3197646 82.91479492 202.37719727 C44.94048349 202.83251303 13.52856832 198.79970475 -16 173 C-16.73476562 172.360625 -17.46953125 171.72125 -18.2265625 171.0625 C-35.79231059 154.67607775 -47.98863738 130.19908795 -49.19287109 106.14794922 C-49.22573396 104.70031922 -49.25226217 103.25253563 -49.2734375 101.8046875 C-49.29250153 100.63298256 -49.29250153 100.63298256 -49.31195068 99.43760681 C-49.76659687 64.77298334 -42.51649733 39.22388738 -18.0625 13.6875 C-15.44308142 11.03870476 -13.72059738 9.5743204 -10 9 C-10 8.34 -10 7.68 -10 7 C-7.8125 5.2734375 -7.8125 5.2734375 -5 3.375 C-3.6078125 2.42753906 -3.6078125 2.42753906 -2.1875 1.4609375 C-1.465625 0.97882813 -0.74375 0.49671875 0 0 Z " fill="#032BA1" transform="translate(129,413)"/>
<path d="M0 0 C22.77 0 45.54 0 69 0 C69 4.95 69 9.9 69 15 C60.75 15 52.5 15 44 15 C44 37.44 44 59.88 44 83 C38.06 83 32.12 83 26 83 C26 60.56 26 38.12 26 15 C17.42 15 8.84 15 0 15 C0 10.05 0 5.1 0 0 Z " fill="#FFFFFF" transform="translate(729,426)"/>
<path d="M0 0 C1.01112854 -0.00350464 2.02225708 -0.00700928 3.06402588 -0.01062012 C6.3753566 -0.01935577 9.68647019 -0.01361768 12.99780273 -0.00683594 C15.31607606 -0.00818483 17.6343491 -0.01012723 19.95262146 -0.01263428 C24.79835722 -0.01557439 29.64401897 -0.01132332 34.48974609 -0.00195312 C40.68553583 0.00944705 46.88115236 0.00287118 53.07693577 -0.00909805 C57.85972894 -0.01634124 62.64248137 -0.01401753 67.4252758 -0.00884247 C69.70931964 -0.00751311 71.99336724 -0.00912855 74.27740669 -0.01380157 C77.47409936 -0.01890797 80.67051532 -0.01109911 83.8671875 0 C84.80094711 -0.00404846 85.73470673 -0.00809692 86.69676208 -0.01226807 C97.21994891 0.05506417 106.28370064 3.03585731 116.05639648 6.75878906 C117.17401367 7.18160156 118.29163086 7.60441406 119.44311523 8.04003906 C122.36889648 9.25878906 122.36889648 9.25878906 125.36889648 11.25878906 C125.36889648 11.91878906 125.36889648 12.57878906 125.36889648 13.25878906 C126.02889648 13.25878906 126.68889648 13.25878906 127.36889648 13.25878906 C127.36889648 14.24878906 127.36889648 15.23878906 127.36889648 16.25878906 C128.05338867 16.49210937 128.73788086 16.72542969 129.44311523 16.96582031 C133.01358739 18.54369252 136.04024007 20.66337211 139.18139648 22.94628906 C139.75954102 23.35556641 140.33768555 23.76484375 140.93334961 24.18652344 C148.7694964 29.82335389 155.2804766 35.88577503 161.05639648 43.63378906 C161.86947266 44.68953125 161.86947266 44.68953125 162.69897461 45.76660156 C177.18849586 64.92283231 182.3014506 86.65998921 181.36889648 110.25878906 C181.03889648 110.25878906 180.70889648 110.25878906 180.36889648 110.25878906 C180.33022461 109.02128906 180.33022461 109.02128906 180.29077148 107.75878906 C179.06035993 82.70313562 169.26979364 56.96814798 152.36889648 38.25878906 C151.70631836 37.515 151.04374023 36.77121094 150.36108398 36.00488281 C144.56315253 29.85394077 137.97758944 25.05271129 130.99243164 20.35742188 C129.60533135 19.41878258 128.24045342 18.44744382 126.88061523 17.46972656 C114.13263516 8.88300423 97.24274988 7.2870418 82.36889648 5.25878906 C82.36889648 4.92878906 82.36889648 4.59878906 82.36889648 4.25878906 C70.43318438 4.23555338 58.49747772 4.21781694 46.56174755 4.20697689 C41.01869593 4.20177255 35.47565986 4.19471964 29.93261719 4.18334961 C24.57690085 4.17243338 19.22119941 4.1664938 13.86547279 4.16391182 C11.82869546 4.16207326 9.79191888 4.15848316 7.75514793 4.15305901 C-6.96841378 4.05722269 -6.96841378 4.05722269 -21.63110352 5.25878906 C-21.30110352 4.26878906 -20.97110352 3.27878906 -20.63110352 2.25878906 C-13.67453713 0.61567058 -7.13646852 -0.0310085 0 0 Z " fill="#5097EC" transform="translate(179.631103515625,398.7412109375)"/>
<path d="M0 0 C0.99 0.495 0.99 0.495 2 1 C-6.90636567 17.40518581 -17.3808347 32.52992916 -32.9375 43.25 C-39.74954468 48.01057877 -43.31590192 53.37544059 -44.78125 61.58984375 C-46.06867698 75.77453029 -39.78936555 87.11677625 -32.296875 98.61328125 C-31 101 -31 101 -31.3125 103.8125 C-31.6528125 104.8953125 -31.6528125 104.8953125 -32 106 C-38.95909107 106.5704173 -44.92953823 105.49774349 -51.625 103.75 C-52.42397705 103.54544189 -53.2229541 103.34088379 -54.04614258 103.13012695 C-61.97849004 100.96690816 -68.48334218 98.20624005 -74 92 C-69.76570244 93.31061591 -65.92592596 94.94356259 -62 97 C-62 97.66 -62 98.32 -62 99 C-60.865625 99.144375 -59.73125 99.28875 -58.5625 99.4375 C-55 100 -55 100 -54 101 C-47.32796347 102.13298734 -40.75381462 102.10130722 -34 102 C-34.43570313 101.35675781 -34.87140625 100.71351563 -35.3203125 100.05078125 C-47 82.32900433 -47 82.32900433 -47 75 C-47.99 75 -48.98 75 -50 75 C-50.02903577 71.89585298 -50.0468107 68.79174091 -50.0625 65.6875 C-50.07087891 64.80642578 -50.07925781 63.92535156 -50.08789062 63.01757812 C-50.09272461 61.74624023 -50.09272461 61.74624023 -50.09765625 60.44921875 C-50.10551147 59.27879028 -50.10551147 59.27879028 -50.11352539 58.0847168 C-50 56 -50 56 -49 53 C-48.34 53 -47.68 53 -47 53 C-46.90976562 52.26007812 -46.81953125 51.52015625 -46.7265625 50.7578125 C-45.45712657 45.93941592 -41.77370514 43.07461947 -38 40 C-36.88625 39.525625 -35.7725 39.05125 -34.625 38.5625 C-29.11887881 36.1891719 -25.2836513 32.12283162 -21 28 C-20.0925 27.13375 -19.185 26.2675 -18.25 25.375 C-12.20721182 19.50698885 -12.20721182 19.50698885 -9 12 C-8.01 12 -7.02 12 -6 12 C-5.71125 11.0925 -5.4225 10.185 -5.125 9.25 C-4.23468224 6.67797092 -3.28505587 4.38653234 -2 2 C-1.34 2 -0.68 2 0 2 C0 1.34 0 0.68 0 0 Z " fill="#0B61DD" transform="translate(353,551)"/>
<path d="M0 0 C0.66 0.33 1.32 0.66 2 1 C0.50333605 4.85220892 -1.62149448 6.39837055 -5 8.6875 C-17.35123137 17.42216166 -28.46979777 26.82888299 -32 42 C-32.33 42.66 -32.66 43.32 -33 44 C-33.66 44 -34.32 44 -35 44 C-35 45.32 -35 46.64 -35 48 C-35.66 48 -36.32 48 -37 48 C-37.0825 48.886875 -37.165 49.77375 -37.25 50.6875 C-37.89203828 55.32134149 -39.44116469 59.62633586 -40.96484375 64.03515625 C-44.19687599 75.1567881 -44.36530963 86.88370124 -44.625 98.375 C-44.66332473 99.80470747 -44.7023839 101.23439544 -44.7421875 102.6640625 C-44.8365474 106.10919305 -44.92112424 109.55447593 -45 113 C-45.33 113 -45.66 113 -46 113 C-48.37974484 105.52080194 -48.30606895 98.30180038 -48.25 90.5 C-48.24689819 89.83181244 -48.24379639 89.16362488 -48.24060059 88.47518921 C-48.06848662 56.9447626 -38.09103327 33.94065234 -15.97265625 11.57421875 C-13.93187936 9.94563838 -12.55489935 9.39438044 -10 9 C-10 8.34 -10 7.68 -10 7 C-7.8125 5.2734375 -7.8125 5.2734375 -5 3.375 C-3.6078125 2.42753906 -3.6078125 2.42753906 -2.1875 1.4609375 C-1.465625 0.97882813 -0.74375 0.49671875 0 0 Z " fill="#255ED0" transform="translate(129,413)"/>
<path d="M0 0 C24.56100274 12.10822981 44.81099885 33.91935987 53.70703125 60.07910156 C55.00867191 64.3413758 56.06064032 68.64285707 57 73 C57.26151855 74.08970093 57.26151855 74.08970093 57.52832031 75.20141602 C58.13426065 78.79659931 58.20150069 82.34864089 58.23828125 85.984375 C58.246353 86.75823547 58.25442474 87.53209595 58.26274109 88.32940674 C58.27654331 89.97007032 58.28728266 91.61076215 58.29516602 93.25146484 C58.30657357 94.89575889 58.32684238 96.54001932 58.35668945 98.18408203 C58.62979743 113.26757623 56.94016912 127.36752494 50 141 C49.34 141 48.68 141 48 141 C48 141.66 48 142.32 48 143 C47.34 143 46.68 143 46 143 C45.896875 143.53625 45.79375 144.0725 45.6875 144.625 C44.81907303 147.62502044 43.44379704 150.2379535 42 153 C41.01 153 40.02 153 39 153 C40.4073899 149.12777589 42.24777647 145.62070413 44.22485352 142.02124023 C47.97025824 135.19927998 51.35859232 128.67876926 53 121 C53.66 121 54.32 121 55 121 C55.37666049 114.00172832 55.70625404 107.00223368 56 100 C56.08507812 98.04513672 56.08507812 98.04513672 56.171875 96.05078125 C56.5026933 81.80905335 53.15017138 69.1759905 48 56 C47.55720703 54.69482422 47.55720703 54.69482422 47.10546875 53.36328125 C43.85907508 44.15775399 37.83363272 36.10500286 31.4375 28.8125 C29 26 29 26 29 24 C28.41992188 23.74347656 27.83984375 23.48695313 27.2421875 23.22265625 C24.79277972 21.88700357 23.13246274 20.37075692 21.125 18.4375 C16.62336809 14.30534876 11.76626507 11.14971495 6.52197266 8.05834961 C4.96638796 7.1141777 3.47591151 6.06441982 2 5 C2 4.01 2 3.02 2 2 C1.34 2 0.68 2 0 2 C0 1.34 0 0.68 0 0 Z " fill="#138CEE" transform="translate(305,410)"/>
<path d="M0 0 C0.495 1.485 0.495 1.485 1 3 C1.53796707 2.85789093 2.07593414 2.71578186 2.63020325 2.56936646 C12.9886658 0.25171639 23.52469721 0.75030405 34.07421875 0.8046875 C36.21083951 0.80842318 38.34746199 0.81126753 40.48408508 0.81326294 C46.07519357 0.82085569 51.66619618 0.84046626 57.25726318 0.8626709 C62.97553068 0.88322374 68.69381549 0.89228474 74.41210938 0.90234375 C85.60811913 0.92371667 96.80405072 0.95779934 108 1 C108 1.33 108 1.66 108 2 C106.40625046 2.00879936 106.40625046 2.00879936 104.78030396 2.01777649 C94.69049357 2.07537891 84.600891 2.14833038 74.51129341 2.23571491 C69.32606736 2.28014618 64.14091498 2.31945963 58.95556641 2.34643555 C53.93682376 2.37274374 48.91836895 2.41333261 43.89980698 2.46318626 C42.00003559 2.47967134 40.10021464 2.49129835 38.20038223 2.49761391 C19.82697845 2.56477695 2.89864344 4.38462674 -14 12 C-14.70543945 12.31710937 -15.41087891 12.63421875 -16.13769531 12.9609375 C-27.14516012 18.04357897 -35.55045787 24.35732547 -44 33 C-44.88042969 33.85980469 -45.76085937 34.71960938 -46.66796875 35.60546875 C-48.68617477 37.67776404 -50.3865727 39.71433446 -52.0625 42.0625 C-54.18311513 44.96122197 -56.35118085 47.55493617 -59 50 C-57.77269006 44.43853268 -55.74885664 40.83371357 -51.9375 36.5625 C-51.44797852 36.00046875 -50.95845703 35.4384375 -50.45410156 34.859375 C-44.38518492 28.00673713 -37.67079455 22.00949848 -30 17 C-29.34 17 -28.68 17 -28 17 C-27.80148438 16.08476562 -27.60296875 15.16953125 -27.3984375 14.2265625 C-25.56537817 9.99721332 -23.75791314 9.30004343 -19.625 7.375 C-19.00737793 7.08359131 -18.38975586 6.79218262 -17.75341797 6.49194336 C-12.00241869 3.84583668 -6.06974674 1.78979711 0 0 Z " fill="#227DE5" transform="translate(157,401)"/>
<path d="M0 0 C0.66 0 1.32 0 2 0 C2 0.66 2 1.32 2 2 C5.66053664 3.22017888 9.05440319 3.17628882 12.86791992 3.20532227 C13.66815079 3.21522186 14.46838165 3.22512146 15.29286194 3.23532104 C17.93870075 3.26691603 20.58455752 3.29168558 23.23046875 3.31640625 C25.06464607 3.3369775 26.89881867 3.35797402 28.73298645 3.37937927 C33.5613116 3.43458223 38.38967942 3.48399937 43.21807861 3.53222656 C48.14477334 3.58245452 53.07140609 3.63813384 57.99804688 3.69335938 C67.66531164 3.80091924 77.33263022 3.90236907 87 4 C84.01872097 7.28844111 81.36395123 8.09711354 77 9 C75.32706064 8.69972883 73.66014616 8.36442233 72 8 C70.90042969 8.155896 69.80085938 8.31179199 68.66796875 8.47241211 C62.70446703 9.27906324 56.75255733 9.01352051 50.75 8.87890625 C49.49614502 8.85529526 48.24229004 8.83168427 46.95043945 8.80735779 C43.64274153 8.74405065 40.33519542 8.67580614 37.02764893 8.60510254 C33.64221219 8.53397178 30.25665036 8.46942412 26.87109375 8.40429688 C20.24726501 8.27555252 13.62359372 8.1402906 7 8 C6.67 7.34 6.34 6.68 6 6 C5.175 5.525625 4.35 5.05125 3.5 4.5625 C1 3 1 3 0 0 Z " fill="#3D51AE" transform="translate(149,543)"/>
<path d="M0 0 C4.76467485 0.4886846 8.46178053 2.01661381 12.7421875 4.01171875 C15.77321915 5.3384506 18.79767136 6.18238418 22 7 C22 7.66 22 8.32 22 9 C25.660738 9.70226402 29.32824234 10.35792156 33 11 C34.50338425 11.26373917 34.50338425 11.26373917 36.03713989 11.5328064 C45.86409445 13.09935192 55.49842418 13.34503078 65.4296875 13.4140625 C67.15846634 13.43282151 68.88723647 13.45239824 70.61599731 13.4727478 C75.11699234 13.52357598 79.6180169 13.56346203 84.11914062 13.60089111 C88.73184209 13.64124408 93.34442601 13.69219186 97.95703125 13.7421875 C106.971271 13.83836098 115.9855779 13.92294874 125 14 C125.99 18.95 125.99 18.95 127 24 C124.4345406 21.4345406 124.45953913 19.52313332 124 16 C123.04882797 16.01110306 122.09765594 16.02220612 121.11766052 16.03364563 C112.04507272 16.136095 102.97260589 16.21047048 93.8995657 16.25906086 C89.23772556 16.2848836 84.57636129 16.3197646 79.91479492 16.37719727 C19.82864436 17.09752919 19.82864436 17.09752919 0 0 Z " fill="#03092E" transform="translate(132,599)"/>
<path d="M0 0 C0.33 0 0.66 0 1 0 C1.33 23.43 1.66 46.86 2 71 C3.32 71.66 4.64 72.32 6 73 C6 73.99 6 74.98 6 76 C32.07 76 58.14 76 85 76 C85 76.33 85 76.66 85 77 C74.63845525 77.09265073 64.27700893 77.16373997 53.91513443 77.20724869 C49.10375596 77.22813 44.29266075 77.25645754 39.48144531 77.30175781 C34.83895837 77.34519622 30.19674399 77.36913301 25.55406952 77.37950897 C23.78220071 77.38690396 22.01034693 77.40134463 20.23859406 77.42292023 C17.75801779 77.45192815 15.27856996 77.45595719 12.79785156 77.45410156 C12.06417358 77.46848267 11.33049561 77.48286377 10.57458496 77.49768066 C7.22237385 77.47051913 5.34961299 77.26318754 2.63763428 75.22161865 C-0.63534023 70.78149345 -1.24968597 68.00777919 -1.24291992 62.42724609 C-1.24481827 61.77638535 -1.24671661 61.1255246 -1.24867249 60.4549408 C-1.25236698 58.3109825 -1.24169691 56.1673655 -1.23046875 54.0234375 C-1.22927628 52.53178955 -1.22882393 51.04014084 -1.2290802 49.54849243 C-1.22751774 46.42648602 -1.2192448 43.30459467 -1.20581055 40.18261719 C-1.18879158 36.17643335 -1.18499719 32.17037553 -1.18575573 28.16415977 C-1.18548417 25.08615918 -1.18000574 22.00818626 -1.17275429 18.93019485 C-1.16956799 17.452574 -1.1676003 15.97495 -1.16686058 14.4973259 C-1.16469826 12.43615087 -1.15595731 10.37511095 -1.14526367 8.31396484 C-1.13954597 6.5533522 -1.13954597 6.5533522 -1.13371277 4.75717163 C-1 2 -1 2 0 0 Z " fill="#99A3C0" transform="translate(149,470)"/>
<path d="M0 0 C4.16741523 1.39161902 6.79416663 3.33207679 10 6.3125 C10.825 7.07175781 11.65 7.83101563 12.5 8.61328125 C30.31225473 25.61841819 43.5112604 48.10974343 44.24609375 73.30859375 C44.28771211 77.87820509 44.18043 82.4341185 44 87 C43.67 87 43.34 87 43 87 C42.97421875 86.175 42.9484375 85.35 42.921875 84.5 C41.44194835 54.36331196 27.96264221 26.50655543 6 6 C4.02475802 4.30056183 2.01451732 2.65293729 0 1 C0 0.67 0 0.34 0 0 Z " fill="#6BA9EF" transform="translate(317,422)"/>
<path d="M0 0 C0.33 0 0.66 0 1 0 C0.9685791 1.00450195 0.9371582 2.00900391 0.90478516 3.04394531 C0.27989336 24.98674832 1.15802311 44.70609084 7 66 C7.3372185 67.33235602 7.67206654 68.6653283 8 70 C8.66 70 9.32 70 10 70 C10.391875 71.155 10.78375 72.31 11.1875 73.5 C12.65908602 77.47611221 14.64496373 80.83118523 17.01171875 84.3359375 C18 86 18 86 18 88 C19.485 88.495 19.485 88.495 21 89 C23.32265612 91.58072903 24 92.45176068 24 96 C24.55300781 96.22300781 25.10601562 96.44601562 25.67578125 96.67578125 C28.72330278 98.41210024 30.7654688 100.65362897 33.1875 103.1875 C37.79927954 107.93682795 42.62684348 112.11275343 48 116 C41.00249718 116 32.89171755 107.11383676 27.9375 102.4375 C13.62594975 87.57462197 3.95699003 69.16500005 0 49 C-0.176521 48.11723389 -0.35304199 47.23446777 -0.53491211 46.32495117 C-1.10043491 42.28198267 -1.14333008 38.35374378 -1.1328125 34.27734375 C-1.13376923 33.4542421 -1.13472595 32.63114044 -1.13571167 31.78309631 C-1.13638934 30.0509534 -1.13456396 28.31880789 -1.13037109 26.58666992 C-1.12501011 23.94248741 -1.13033363 21.2984742 -1.13671875 18.65429688 C-1.13605803 16.96614546 -1.13477699 15.27799415 -1.1328125 13.58984375 C-1.13483673 12.80326889 -1.13686096 12.01669403 -1.13894653 11.20628357 C-1.12253093 7.34712319 -0.93952567 3.75110521 0 0 Z " fill="#061D7A" transform="translate(81,480)"/>
<path d="M0 0 C0.93506882 0.14038696 1.87013763 0.28077393 2.83354187 0.42541504 C12.72194942 1.83038228 22.43510401 2.3043017 32.41565895 2.33552551 C35.02648742 2.34397478 37.63699194 2.36460931 40.24772644 2.38806152 C46.71230082 2.44380373 53.17695239 2.47984304 59.6416626 2.51568604 C65.14915177 2.5469118 70.65647171 2.58600743 76.16382408 2.63594055 C78.73365412 2.65597037 81.30335358 2.66431148 83.87324524 2.67224121 C85.43869515 2.68520431 87.0041406 2.69872323 88.56958008 2.71289062 C89.28171661 2.71190872 89.99385315 2.71092682 90.72756958 2.70991516 C94.37510171 2.75604736 95.87618235 2.9174549 99 5 C100.24609375 7.828125 100.24609375 7.828125 101.4375 11.25 C103.18332546 16.0272133 104.90018371 19.98171963 108 24 C107.67 24.66 107.34 25.32 107 26 C102.56398034 22.48177751 101.47966871 18.24609814 100 13 C99.34 13 98.68 13 98 13 C97.01 9.535 97.01 9.535 96 6 C95.14461136 5.99413376 94.28922272 5.98826752 93.40791321 5.98222351 C85.24682328 5.92371199 77.08599025 5.85131666 68.92515278 5.76428509 C64.73210473 5.72003209 60.5391439 5.68068478 56.34594727 5.65356445 C7.99676831 5.33117887 7.99676831 5.33117887 0 0 Z " fill="#124EC9" transform="translate(162,607)"/>
<path d="M0 0 C0.66 0.33 1.32 0.66 2 1 C-6.90636567 17.40518581 -17.3808347 32.52992916 -32.9375 43.25 C-37.7112665 46.55174052 -40.47922081 49.80566713 -43 55 C-43.36996094 55.73734375 -43.73992187 56.4746875 -44.12109375 57.234375 C-44.55615234 58.10835937 -44.55615234 58.10835937 -45 59 C-44.69640515 52.16911584 -43.69638038 47.56544592 -38.56640625 42.6171875 C-36.75042077 41.02330096 -34.88823868 39.5078243 -33 38 C-31.10108327 36.48301836 -29.20543287 34.96194194 -27.3125 33.4375 C-26.40113281 32.71433594 -25.48976563 31.99117187 -24.55078125 31.24609375 C-22.01324007 29.01165856 -20.06992458 26.6625953 -18 24 C-16.33729713 22.66172696 -14.67083819 21.32810215 -13 20 C-10.73401096 17.41029824 -9.60574877 15.39219311 -9 12 C-8.01 12 -7.02 12 -6 12 C-5.71125 11.0925 -5.4225 10.185 -5.125 9.25 C-4.23468224 6.67797092 -3.28505587 4.38653234 -2 2 C-1.34 2 -0.68 2 0 2 C0 1.34 0 0.68 0 0 Z " fill="#0446C4" transform="translate(353,551)"/>
<path d="M0 0 C3.28465896 2.79196011 5.01321958 6.23196817 7 10 C7 10.66 7 11.32 7 12 C8.0828125 12.3403125 8.0828125 12.3403125 9.1875 12.6875 C12.5518369 14.25752389 14.38166113 16.38166113 17 19 C18.64735668 20.06593668 20.32041884 21.00127925 22.05859375 21.91015625 C24 23 24 23 26.72265625 24.95703125 C30.42105759 27.26247094 33.83343148 28.461827 38 29.625 C39.10299438 29.94247192 39.10299438 29.94247192 40.22827148 30.26635742 C47.07935291 32.16406789 53.92831104 33.24912336 61 34 C60.505 34.99 60.505 34.99 60 36 C40.95312633 36.58010783 24.60297326 30.42091978 10 18 C5.83209866 13.24368906 0 6.48408405 0 0 Z " fill="#041562" transform="translate(259,623)"/>
<path d="M0 0 C0.33 0.66 0.66 1.32 1 2 C-0.33923847 4.16757106 -1.72476526 6.23090519 -3.1875 8.3125 C-7.06087421 14.04014117 -9.48626896 19.41841202 -11.24609375 26.16015625 C-12 29 -12 29 -13.03515625 31.578125 C-13.98611875 33.96515637 -14.53310255 36.16542 -15 38.6875 C-16 44 -16 44 -16.48583984 46.09960938 C-18.04771573 53.10748121 -18.42508486 59.96137424 -18.625 67.125 C-18.66367188 68.27226562 -18.70234375 69.41953125 -18.7421875 70.6015625 C-18.83549846 73.40089117 -18.92128645 76.20022936 -19 79 C-18.34 79 -17.68 79 -17 79 C-17 81.97 -17 84.94 -17 88 C-17.33 88 -17.66 88 -18 88 C-20.37974484 80.52080194 -20.30606895 73.30180038 -20.25 65.5 C-20.24689819 64.83181244 -20.24379639 64.16362488 -20.24060059 63.47518921 C-20.10919656 39.40262069 -15.50675003 18.99576879 0 0 Z " fill="#0B3CB7" transform="translate(101,438)"/>
<path d="M0 0 C0 0.66 0 1.32 0 2 C-2.64 2.99 -5.28 3.98 -8 5 C-8 6.65 -8 8.3 -8 10 C-8.64324219 10.29390625 -9.28648437 10.5878125 -9.94921875 10.890625 C-18.68401824 15.22687354 -25.13874173 21.22005002 -32 28 C-32.88816406 28.86367188 -33.77632812 29.72734375 -34.69140625 30.6171875 C-36.6956517 32.68586723 -38.3933633 34.72384886 -40.0625 37.0625 C-42.18311513 39.96122197 -44.35118085 42.55493617 -47 45 C-45.77269006 39.43853268 -43.74885664 35.83371357 -39.9375 31.5625 C-39.44797852 31.00046875 -38.95845703 30.4384375 -38.45410156 29.859375 C-32.38518492 23.00673713 -25.67079455 17.00949848 -18 12 C-17.34 12 -16.68 12 -16 12 C-15.690625 10.61941406 -15.690625 10.61941406 -15.375 9.2109375 C-13.62045472 5.11367552 -12.00008226 4.44234506 -8 2.625 C-6.9275 2.12226563 -5.855 1.61953125 -4.75 1.1015625 C-2 0 -2 0 0 0 Z " fill="#246EDD" transform="translate(145,406)"/>
<path d="M0 0 C26.07 0 52.14 0 79 0 C81 4 81 4 81 8 C81.66 8 82.32 8 83 8 C83.67119549 9.4562545 84.33681807 10.91507867 85 12.375 C85.37125 13.18710937 85.7425 13.99921875 86.125 14.8359375 C87 17 87 17 87 19 C87.58523438 19.2475 88.17046875 19.495 88.7734375 19.75 C91.32788889 21.18407798 92.75320419 22.75714334 94.625 25 C96.3733168 27.07660336 98.07962765 29.07962765 100 31 C96.71090998 30.40724092 94.91094429 29.34943983 92.4375 27.125 C91.85871094 26.61195313 91.27992188 26.09890625 90.68359375 25.5703125 C89.85021484 24.79300781 89.85021484 24.79300781 89 24 C88.49726563 23.53464844 87.99453125 23.06929687 87.4765625 22.58984375 C85.69026207 20.66649911 84.33321941 18.66137005 82.9375 16.4375 C82.43089844 15.65246094 81.92429687 14.86742187 81.40234375 14.05859375 C80 11 80 11 78 1 C52.26 1 26.52 1 0 1 C0 0.67 0 0.34 0 0 Z " fill="#022396" transform="translate(179,612)"/>
<path d="M0 0 C0.66 0.33 1.32 0.66 2 1 C0.50333605 4.85220892 -1.62149448 6.39837055 -5 8.6875 C-19.12965483 18.7090544 -29.34436612 30.47088899 -37 46 C-37.495 44.515 -37.495 44.515 -38 43 C-36.55859375 40.21484375 -36.55859375 40.21484375 -34.4375 36.9375 C-33.68261386 35.76365041 -32.92871551 34.58916503 -32.17578125 33.4140625 C-31.61431396 32.54442871 -31.61431396 32.54442871 -31.04150391 31.65722656 C-29.64033015 29.42769833 -28.39517239 27.11857667 -27.125 24.8125 C-23.67412325 19.02943732 -18.27602006 11.44225083 -11.6953125 9.22265625 C-11.13585937 9.14917969 -10.57640625 9.07570313 -10 9 C-10 8.34 -10 7.68 -10 7 C-7.8125 5.2734375 -7.8125 5.2734375 -5 3.375 C-3.6078125 2.42753906 -3.6078125 2.42753906 -2.1875 1.4609375 C-1.465625 0.97882813 -0.74375 0.49671875 0 0 Z " fill="#0B4ECD" transform="translate(129,413)"/>
<path d="M0 0 C0.33 0 0.66 0 1 0 C1.91448843 13.18387491 -1.01381783 26.24142788 -7 38 C-7.66 38 -8.32 38 -9 38 C-9 38.66 -9 39.32 -9 40 C-9.66 40 -10.32 40 -11 40 C-11.103125 40.53625 -11.20625 41.0725 -11.3125 41.625 C-12.18092697 44.62502044 -13.55620296 47.2379535 -15 50 C-15.99 50 -16.98 50 -18 50 C-16.5926101 46.12777589 -14.75222353 42.62070413 -12.77514648 39.02124023 C-9.02974176 32.19927998 -5.64140768 25.67876926 -4 18 C-3.34 18 -2.68 18 -2 18 C-1.34 12.06 -0.68 6.12 0 0 Z " fill="#0869E2" transform="translate(362,513)"/>
<path d="M0 0 C0.66 0.33 1.32 0.66 2 1 C1.34 1.66 0.68 2.32 0 3 C-0.1757147 5.82930454 -0.23330514 8.54796385 -0.1875 11.375 C-0.18105469 12.19572998 -0.17460937 13.01645996 -0.16796875 13.86206055 C-0.10168514 19.13419663 0.24903893 24.32056265 0.77734375 29.56640625 C1.30412169 37.68987655 1.07432531 45.86309415 1 54 C1.66 54.33 2.32 54.66 3 55 C1.35 55 -0.3 55 -2 55 C-2 37.18 -2 19.36 -2 1 C-1.34 0.67 -0.68 0.34 0 0 Z " fill="#BBC3D7" transform="translate(250,478)"/>
<path d="M0 0 C10.88728399 5.36727828 22.13322833 12.60357829 30 22 C30.875 24.875 30.875 24.875 31 27 C30.34 26.67 29.68 26.34 29 26 C29 25.34 29 24.68 29 24 C28.41992188 23.74347656 27.83984375 23.48695313 27.2421875 23.22265625 C24.79277972 21.88700357 23.13246274 20.37075692 21.125 18.4375 C16.62336809 14.30534876 11.76626507 11.14971495 6.52197266 8.05834961 C4.96638796 7.1141777 3.47591151 6.06441982 2 5 C2 4.01 2 3.02 2 2 C1.34 2 0.68 2 0 2 C0 1.34 0 0.68 0 0 Z " fill="#1B94F0" transform="translate(305,410)"/>
<path d="M0 0 C8.40577035 -0.84057704 13.75957026 1.88361355 21 6 C21 6.66 21 7.32 21 8 C21.66 8 22.32 8 23 8 C23 8.99 23 9.98 23 11 C24.051875 11.37125 24.051875 11.37125 25.125 11.75 C28.37002459 13.16088026 31.10316737 14.97895398 34 17 C33.34 17.66 32.68 18.32 32 19 C30.74896484 18.11248047 30.74896484 18.11248047 29.47265625 17.20703125 C20.03187286 10.55611407 10.86917314 5.06175781 0 1 C0 0.67 0 0.34 0 0 Z " fill="#4FA0EE" transform="translate(284,404)"/>
<path d="M0 0 C2.77579761 2.77579761 2.86061387 5.30306937 3.625 9.125 C3.88539062 10.40632812 4.14578125 11.68765625 4.4140625 13.0078125 C4.60742188 13.99523437 4.80078125 14.98265625 5 16 C5.66 16 6.32 16 7 16 C8.36907416 18.57637588 9.72028455 21.15968104 11.0625 23.75 C11.64741211 24.84441406 11.64741211 24.84441406 12.24414062 25.9609375 C12.79038086 27.02441406 12.79038086 27.02441406 13.34765625 28.109375 C13.85824585 29.08342285 13.85824585 29.08342285 14.37915039 30.07714844 C15.13558044 32.41991018 14.78821819 33.70456573 14 36 C13.16121545 34.71186658 12.32913217 33.41936744 11.5 32.125 C11.0359375 31.40570312 10.571875 30.68640625 10.09375 29.9453125 C9 28 9 28 9 26 C8.34 26 7.68 26 7 26 C7 25.34 7 24.68 7 24 C6.34 24 5.68 24 5 24 C1.0622046 16.96333084 -0.55871404 8.00823453 0 0 Z " fill="#0631A9" transform="translate(84,526)"/>
<path d="M0 0 C4.23429756 1.31061591 8.07407404 2.94356259 12 5 C12 5.66 12 6.32 12 7 C13.134375 7.144375 14.26875 7.28875 15.4375 7.4375 C19 8 19 8 20 9 C27.33067404 10.85295635 34.47116743 11.2621257 42 11 C42.33 10.34 42.66 9.68 43 9 C42.67 10.65 42.34 12.3 42 14 C35.04090893 14.5704173 29.07046177 13.49774349 22.375 11.75 C21.17653442 11.44316284 21.17653442 11.44316284 19.95385742 11.13012695 C12.02150996 8.96690816 5.51665782 6.20624005 0 0 Z " fill="#0A43BF" transform="translate(279,643)"/>
<path d="M0 0 C0.99 0.33 1.98 0.66 3 1 C3.66666667 2.66666667 4.33333333 4.33333333 5 6 C5.99 6.33 6.98 6.66 8 7 C10.32265612 9.58072903 11 10.45176068 11 14 C11.55300781 14.22300781 12.10601562 14.44601562 12.67578125 14.67578125 C15.72330278 16.41210024 17.7654688 18.65362897 20.1875 21.1875 C24.79927954 25.93682795 29.62684348 30.11275343 35 34 C27.95309024 34 19.81960812 25.03769603 14.875 20.3125 C0 5.00284091 0 5.00284091 0 0 Z " fill="#051259" transform="translate(94,562)"/>
<path d="M0 0 C0.33 0.66 0.66 1.32 1 2 C-0.33923828 4.16757076 -1.72447866 6.23109973 -3.1875 8.3125 C-7.68388627 14.94543001 -10.13869742 21.16430663 -12 29 C-12.99 29 -13.98 29 -15 29 C-15.12375 30.03125 -15.2475 31.0625 -15.375 32.125 C-15.93889814 35.62116846 -16.78682059 38.68397627 -18 42 C-20.25476593 35.67162363 -16.68192039 28.66705551 -14.01953125 22.86230469 C-10.0485074 14.7374752 -5.79287935 6.98116229 0 0 Z " fill="#0A3BB4" transform="translate(101,438)"/>
<path d="M0 0 C4.76467485 0.4886846 8.46178053 2.01661381 12.7421875 4.01171875 C15.77321915 5.3384506 18.79767136 6.18238418 22 7 C22 7.66 22 8.32 22 9 C25.63 9.66 29.26 10.32 33 11 C33 11.33 33 11.66 33 12 C20.71853915 12.94472776 10.32289396 6.92733912 0 1 C0 0.67 0 0.34 0 0 Z " fill="#041561" transform="translate(132,599)"/>
<path d="M0 0 C0.66 0 1.32 0 2 0 C1.67360395 5.38553478 -1.4646587 8.27402755 -5 12 C-6.11375 13.175625 -6.11375 13.175625 -7.25 14.375 C-9.81991456 16.82810026 -12.39517684 19.27148798 -15 21.6875 C-15.825 22.45449219 -16.65 23.22148438 -17.5 24.01171875 C-19.95375845 25.96322351 -22.04369301 27.01280463 -25 28 C-22.74363515 25.67084919 -20.50715644 23.42329593 -18.015625 21.34375 C-11.09666268 15.55341274 -4.0821169 8.1642338 0 0 Z " fill="#0E66DD" transform="translate(342,563)"/>
<path d="M0 0 C0.33 0.66 0.66 1.32 1 2 C-5.6205696 8.84125525 -12.67336948 15.24662436 -20.40625 20.80859375 C-23.98358486 23.48282692 -24.78623401 25.93019989 -26.125 30.125 C-26.47820312 31.22070312 -26.83140625 32.31640625 -27.1953125 33.4453125 C-27.59363281 34.70988281 -27.59363281 34.70988281 -28 36 C-28.33 36 -28.66 36 -29 36 C-28.69640515 29.16911584 -27.69638038 24.56544592 -22.56640625 19.6171875 C-20.75042077 18.02330096 -18.88823868 16.5078243 -17 15 C-15.10108327 13.48301836 -13.20543287 11.96194194 -11.3125 10.4375 C-10.40113281 9.71433594 -9.48976563 8.99117187 -8.55078125 8.24609375 C-6.01723882 6.01517966 -4.07800096 3.64843259 -2 1 C-1.34 0.67 -0.68 0.34 0 0 Z " fill="#034BCD" transform="translate(337,574)"/>
<path d="M0 0 C3 2 3 2 3.72387695 3.93237305 C5.04580797 10.92910893 5.26766355 17.7032592 5.1875 24.8125 C5.18685547 25.91787109 5.18621094 27.02324219 5.18554688 28.16210938 C5.15962894 32.92812981 5.06184166 37.33689984 4 42 C3.67 42 3.34 42 3 42 C3.01571045 41.41734375 3.0314209 40.8346875 3.04760742 40.234375 C3.31195405 28.88420072 3.14920028 18.2200494 0.65625 7.1171875 C0 4 0 4 0 0 Z " fill="#0D80EC" transform="translate(358,476)"/>
<path d="M0 0 C0.33 0 0.66 0 1 0 C0.98952637 1.10923828 0.97905273 2.21847656 0.96826172 3.36132812 C0.93185679 7.50615162 0.90902542 11.65096118 0.89013672 15.79589844 C0.88012561 17.58433413 0.86651267 19.37275366 0.84912109 21.16113281 C0.82465638 23.74287934 0.81346779 26.32440804 0.8046875 28.90625 C0.79436493 29.69616333 0.78404236 30.48607666 0.77340698 31.29992676 C0.77263715 35.17391142 1.04562755 38.57306792 2.07470703 42.31835938 C2.95284267 45.81236608 3.01557807 46.77775229 2 50 C-0.75647402 44.50615624 -1.42480084 40.2823301 -1.328125 34.1796875 C-1.32625183 33.35800079 -1.32437866 32.53631409 -1.32244873 31.68972778 C-1.31576285 29.96352033 -1.30191795 28.23732713 -1.28125 26.51123047 C-1.25000987 23.87583243 -1.24026343 21.24103396 -1.234375 18.60546875 C-1.22520661 16.92186774 -1.21483136 15.23827278 -1.203125 13.5546875 C-1.19887512 12.77124969 -1.19462524 11.98781189 -1.19024658 11.18063354 C-1.14020554 7.33770206 -0.92656146 3.73688365 0 0 Z " fill="#062590" transform="translate(81,480)"/>
<path d="M0 0 C0.66 0 1.32 0 2 0 C2.31453125 0.60328125 2.6290625 1.2065625 2.953125 1.828125 C5.27515946 6.16445441 7.39081792 9.6163918 11 13 C16 19.32183908 16 19.32183908 16 22 C7.82867145 18.33517668 3.64557531 9.79532593 0 2 C0 1.34 0 0.68 0 0 Z " fill="#0431AA" transform="translate(91,552)"/>
<path d="M0 0 C0.33 0 0.66 0 1 0 C0.67 2.97 0.34 5.94 0 9 C-0.66 9 -1.32 9 -2 9 C-2.04125 9.9075 -2.0825 10.815 -2.125 11.75 C-2.91666186 17.65701542 -6.22001975 22.82260559 -9 28 C-10.17656088 24.47031735 -9.79637076 23.83265237 -8.41796875 20.5078125 C-8.06283203 19.63769531 -7.70769531 18.76757812 -7.34179688 17.87109375 C-6.96087891 16.96488281 -6.57996094 16.05867187 -6.1875 15.125 C-5.81818359 14.22652344 -5.44886719 13.32804688 -5.06835938 12.40234375 C-4.37564434 10.71843684 -3.67904217 9.03611994 -2.97729492 7.35595703 C-1.96357545 4.91219162 -0.97791857 2.45828401 0 0 Z " fill="#1F80E7" transform="translate(360,522)"/>
<path d="M0 0 C0.33 0.99 0.66 1.98 1 3 C1.66 3.33 2.32 3.66 3 4 C0.04575985 5.03296044 -2.91394073 6.04926955 -5.875 7.0625 C-6.71675781 7.35705078 -7.55851563 7.65160156 -8.42578125 7.95507812 C-9.23144531 8.22900391 -10.03710938 8.50292969 -10.8671875 8.78515625 C-11.61081543 9.04176025 -12.35444336 9.29836426 -13.12060547 9.56274414 C-15 10 -15 10 -17 9 C-15.35 8.34 -13.7 7.68 -12 7 C-12 6.01 -12 5.02 -12 4 C-8.04 2.68 -4.08 1.36 0 0 Z " fill="#4682E8" transform="translate(157,401)"/>
<path d="M0 0 C2.66236872 2.66236872 3.05939079 5.32882365 4.0234375 8.90625 C5.26461347 11.56733128 6.37913105 11.8051921 9 13 C10.8515625 14.875 10.8515625 14.875 12.625 17 C14.3733168 19.07660336 16.07962765 21.07962765 18 23 C14.71090998 22.40724092 12.91094429 21.34943983 10.4375 19.125 C9.56931641 18.35542969 9.56931641 18.35542969 8.68359375 17.5703125 C4.04713306 13.24581784 0.22535926 9.09868988 -0.25 2.5625 C-0.1675 1.716875 -0.085 0.87125 0 0 Z " fill="#052EA3" transform="translate(261,620)"/>
<path d="M0 0 C0.66 0.33 1.32 0.66 2 1 C-3.447824 6.81101227 -9.06458789 11.73702238 -15.6171875 16.2734375 C-17.63256657 17.73376135 -19.31443393 19.18048166 -21 21 C-20.43443422 17.47667806 -19.35186181 16.06633476 -16.625 13.8125 C-15.91472656 13.21824219 -15.20445312 12.62398437 -14.47265625 12.01171875 C-13.65667969 11.34785156 -12.84070313 10.68398438 -12 10 C-11.02933594 9.20207031 -10.05867188 8.40414062 -9.05859375 7.58203125 C-7.11723159 5.98996241 -5.17214077 4.40242511 -3.22265625 2.8203125 C-1.56382999 1.46261587 -1.56382999 1.46261587 0 0 Z " fill="#052DA8" transform="translate(333,580)"/>
<path d="M0 0 C7.39393019 2.15928935 14.70417741 4.5304518 22 7 C22 7.33 22 7.66 22 8 C15.64664345 8.34654672 10.90516661 7.30144326 5 5 C3.989375 4.608125 2.97875 4.21625 1.9375 3.8125 C1.298125 3.544375 0.65875 3.27625 0 3 C0 2.01 0 1.02 0 0 Z " fill="#0B38AE" transform="translate(140,599)"/>
<path d="M0 0 C5.66008415 0.50232126 9.71422103 2.76463911 14.5625 5.5 C20.92674287 9.20107899 20.92674287 9.20107899 28 11 C28 11.33 28 11.66 28 12 C20.89826891 12.86678549 16.15436835 9.88946058 10.0625 6.5 C9.09248047 5.97535156 8.12246094 5.45070313 7.12304688 4.91015625 C4.74132303 3.61956697 2.36771128 2.31606691 0 1 C0 0.67 0 0.34 0 0 Z " fill="#8F9ABB" transform="translate(260,538)"/>
<path d="M0 0 C6.10849414 -0.37398944 10.64285578 -0.1250008 16 3 C16.9375 5.1875 16.9375 5.1875 17 7 C13.54665767 6.18892444 10.18773584 5.15194884 6.8125 4.0625 C5.74644531 3.72347656 4.68039062 3.38445312 3.58203125 3.03515625 C1 2 1 2 0 0 Z " fill="#56A3F0" transform="translate(284,404)"/>
<path d="M0 0 C0 2.83967231 -0.40267181 5.23735711 -1 8 C-1.66 8 -2.32 8 -3 8 C-3.16489368 18.04821399 -3.16489368 18.04821399 -2 28 C-2.99 28 -3.98 28 -5 28 C-5.02903577 24.89585298 -5.0468107 21.79174091 -5.0625 18.6875 C-5.07087891 17.80642578 -5.07925781 16.92535156 -5.08789062 16.01757812 C-5.09111328 15.17001953 -5.09433594 14.32246094 -5.09765625 13.44921875 C-5.10289307 12.66893311 -5.10812988 11.88864746 -5.11352539 11.0847168 C-5 9 -5 9 -4 6 C-3.34 6 -2.68 6 -2 6 C-1.855625 5.195625 -1.71125 4.39125 -1.5625 3.5625 C-1 1 -1 1 0 0 Z " fill="#1D6CDD" transform="translate(308,598)"/>
<path d="M0 0 C4.2597105 1.40715751 6.91991422 3.45486711 10.1875 6.5 C11.04730469 7.2940625 11.90710938 8.088125 12.79296875 8.90625 C14.21251217 10.2529319 15.61640763 11.61640763 17 13 C16.01 13.33 15.02 13.66 14 14 C13.49210937 13.48050781 12.98421875 12.96101563 12.4609375 12.42578125 C9.24318022 9.16584364 6.05629717 5.95518191 2.5 3.0625 C1.675 2.381875 0.85 1.70125 0 1 C0 0.67 0 0.34 0 0 Z " fill="#64A8EF" transform="translate(317,422)"/>
<path d="M0 0 C8.13544686 -0.28545428 15.97649696 0.81603117 24 2 C24 2.33 24 2.66 24 3 C15.58303417 4.62432674 8.19575708 2.91126351 0 1 C0 0.67 0 0.34 0 0 Z " fill="#040B3A" transform="translate(161,611)"/>
<path d="M0 0 C2.51317217 3.14903501 4.40647572 6.42034121 6.25 10 C6.79140625 11.03125 7.3328125 12.0625 7.890625 13.125 C9.03001623 16.07778854 9.18510315 17.133704 8 20 C3.79076152 13.74437285 0 7.75288137 0 0 Z " fill="#1C54C9" transform="translate(90,542)"/>
<path d="M0 0 C1.31223496 3.93670488 0.24296256 6.12488144 -1 10 C-1.66 10 -2.32 10 -3 10 C-3.12375 11.03125 -3.2475 12.0625 -3.375 13.125 C-3.93889814 16.62116846 -4.78682059 19.68397627 -6 23 C-7.47192444 19.13148065 -6.48854933 16.47527292 -5.25 12.625 C-4.90453125 11.52414062 -4.5590625 10.42328125 -4.203125 9.2890625 C-3.01721142 6.04705201 -1.60503126 3.05324911 0 0 Z " fill="#082C9D" transform="translate(89,457)"/>
<path d="M0 0 C3.89765319 0.54134072 5.93334609 1.60417663 9 4 C10.64797236 4.71162443 12.31165408 5.39031953 14 6 C14 6.66 14 7.32 14 8 C5.07085202 7.01165919 5.07085202 7.01165919 2.4453125 4.53125 C1.375 2.875 1.375 2.875 0 0 Z " fill="#032188" transform="translate(126,593)"/>
<path d="M0 0 C0.66 0 1.32 0 2 0 C2.66 1.98 3.32 3.96 4 6 C4.66 6 5.32 6 6 6 C6.45375 7.2375 6.9075 8.475 7.375 9.75 C8.4384007 12.59245495 9.55192483 15.32663046 11 18 C8 17 8 17 6.92504883 15.43359375 C6.60560303 14.77488281 6.28615723 14.11617187 5.95703125 13.4375 C5.60576172 12.72335937 5.25449219 12.00921875 4.89257812 11.2734375 C4.53615234 10.52320313 4.17972656 9.77296875 3.8125 9 C3.44447266 8.24976563 3.07644531 7.49953125 2.69726562 6.7265625 C0 1.18190515 0 1.18190515 0 0 Z " fill="#06186D" transform="translate(85,544)"/>
<path d="M0 0 C0.33 0.66 0.66 1.32 1 2 C-5.93 1.505 -5.93 1.505 -13 1 C-13 0.34 -13 -0.32 -13 -1 C-4.29841489 -2.47484493 -4.29841489 -2.47484493 0 0 Z " fill="#5898F1" transform="translate(282,402)"/>
<path d="M0 0 C0.33 0.99 0.66 1.98 1 3 C0.67 3.66 0.34 4.32 0 5 C-10.55808656 5.18451025 -10.55808656 5.18451025 -15 4 C-15 3.67 -15 3.34 -15 3 C-10.05 2.67 -5.1 2.34 0 2 C0 1.34 0 0.68 0 0 Z " fill="#0438C1" transform="translate(321,652)"/>
<path d="M0 0 C1.5877405 0.90901174 3.17001197 1.82757924 4.75 2.75 C6.07257813 3.51570312 6.07257813 3.51570312 7.421875 4.296875 C9.96537343 5.97712548 11.92902925 7.77419032 14 10 C11.69 9.67 9.38 9.34 7 9 C6.67 7.68 6.34 6.36 6 5 C5.38125 4.9175 4.7625 4.835 4.125 4.75 C2 4 2 4 0.8671875 1.953125 C0.58101563 1.30859375 0.29484375 0.6640625 0 0 Z " fill="#031C7B" transform="translate(273,640)"/>
<path d="M0 0 C4.455 0.99 4.455 0.99 9 2 C8.67 2.66 8.34 3.32 8 4 C6.0390625 4.44921875 6.0390625 4.44921875 3.625 4.6875 C2.83351563 4.77386719 2.04203125 4.86023438 1.2265625 4.94921875 C-1 5 -1 5 -4 4 C-2.68 3.34 -1.36 2.68 0 2 C0 1.34 0 0.68 0 0 Z " fill="#3A5BC4" transform="translate(279,549)"/>
<path d="M0 0 C0.66 0 1.32 0 2 0 C3.54296875 2.046875 3.54296875 2.046875 5.1875 4.75 C5.73792969 5.63171875 6.28835937 6.5134375 6.85546875 7.421875 C8 10 8 10 7.67578125 12.328125 C7.45277344 12.87984375 7.22976562 13.4315625 7 14 C5.82807953 12.04480616 4.6626071 10.0857461 3.5 8.125 C2.8503125 7.03445313 2.200625 5.94390625 1.53125 4.8203125 C0 2 0 2 0 0 Z " fill="#03289C" transform="translate(91,552)"/>
<path d="M0 0 C0.66 0.33 1.32 0.66 2 1 C0.59070303 4.47132095 -0.90605083 5.88093274 -4.125 7.75 C-4.84945312 8.17796875 -5.57390625 8.6059375 -6.3203125 9.046875 C-6.87460938 9.36140625 -7.42890625 9.6759375 -8 10 C-7.04735876 5.80837855 -6.36739592 4.2792209 -2.875 1.625 C-1.92625 1.08875 -0.9775 0.5525 0 0 Z " fill="#0F61DC" transform="translate(129,413)"/>
<path d="M0 0 C6.96218074 0.59001532 11.03680739 1.90881675 16 7 C10.3856009 5.43551329 5.13189662 3.83604813 0 1 C0 0.67 0 0.34 0 0 Z " fill="#040E52" transform="translate(281,649)"/>
<path d="M0 0 C2.1446143 2.1446143 2.44564603 3.01739998 3.125 5.875 C3.29257813 6.55304687 3.46015625 7.23109375 3.6328125 7.9296875 C4 10 4 10 4 14 C3.34 14 2.68 14 2 14 C0.4087311 9.126739 -0.21192221 5.19209404 0 0 Z " fill="#0C3EBA" transform="translate(84,526)"/>
<path d="M0 0 C7.57142857 4 7.57142857 4 10 8 C3.51510574 6.53172205 3.51510574 6.53172205 1.0625 4 C0 2 0 2 0 0 Z " fill="#118BEF" transform="translate(316,417)"/>
<path d="M0 0 C2.475 0.99 2.475 0.99 5 2 C5 2.66 5 3.32 5 4 C5.66 4 6.32 4 7 4 C7 4.66 7 5.32 7 6 C1.25 5.25 1.25 5.25 -1 3 C-0.67 2.01 -0.34 1.02 0 0 Z " fill="#3B9AEE" transform="translate(300,408)"/>
<path d="M0 0 C5.2584002 0.67415387 10.02638346 2.24265549 15 4 C15 4.33 15 4.66 15 5 C8.53673535 5.45356243 5.39068413 4.59378942 0 1 C0 0.67 0 0.34 0 0 Z " fill="#1B50C6" transform="translate(147,602)"/>
<path d="M0 0 C0.66 0 1.32 0 2 0 C1.5020163 3.73487777 1.12508244 5.81237635 -1 9 C-1.66 9 -2.32 9 -3 9 C-2.30058404 5.85262818 -1.23921302 2.97411124 0 0 Z " fill="#045CDA" transform="translate(356,542)"/>
<path d="M0 0 C4.23429756 1.31061591 8.07407404 2.94356259 12 5 C9 6 9 6 5.4375 4.75 C2 3 2 3 0 0 Z " fill="#124DC6" transform="translate(279,643)"/>
<path d="M0 0 C4.35522853 0.50642192 7.44239635 1.38411497 11 4 C11 4.66 11 5.32 11 6 C6.49197399 4.74194623 3.5087188 3.09592835 0 0 Z " fill="#04104E" transform="translate(132,599)"/>
<path d="M0 0 C4.3890815 0.51035831 7.33708062 1.52214277 11 4 C9.4375 4.75 9.4375 4.75 7 5 C4.49713591 3.86915563 2.32992278 2.47860484 0 1 C0 0.67 0 0.34 0 0 Z " fill="#A0A9C0" transform="translate(260,538)"/>
<path d="M0 0 C1.13643966 3.40931897 0.86747764 4.00335456 -0.4375 7.1875 C-0.86869141 8.26064453 -0.86869141 8.26064453 -1.30859375 9.35546875 C-1.53675781 9.89816406 -1.76492188 10.44085937 -2 11 C-2.33 11 -2.66 11 -3 11 C-2.88590407 9.54077307 -2.75834456 8.08259402 -2.625 6.625 C-2.55539062 5.81289063 -2.48578125 5.00078125 -2.4140625 4.1640625 C-2 2 -2 2 0 0 Z " fill="#0542BE" transform="translate(311,599)"/>
<path d="M0 0 C2.3828125 -0.29296875 2.3828125 -0.29296875 5.125 -0.1875 C6.03507812 -0.16042969 6.94515625 -0.13335937 7.8828125 -0.10546875 C8.58148438 -0.07066406 9.28015625 -0.03585937 10 0 C10 0.33 10 0.66 10 1 C8.56342755 1.33730842 7.12569907 1.66969591 5.6875 2 C4.48673828 2.2784375 4.48673828 2.2784375 3.26171875 2.5625 C1 3 1 3 -2 3 C-1.34 2.01 -0.68 1.02 0 0 Z " fill="#609CED" transform="translate(278,462)"/>
<path d="M0 0 C0.66 0.33 1.32 0.66 2 1 C0.02 2.98 -1.96 4.96 -4 7 C-4.99 6.67 -5.98 6.34 -7 6 C-4.69 4.02 -2.38 2.04 0 0 Z " fill="#0634B3" transform="translate(333,580)"/>
</svg>
